Coordinates
version=1
nRows=22
nColumns=18
inDegrees=yes

Units are S.I. units (second, meters, Newtons, ...)
If the header above contains a line with 'inDegrees', this indicates whether rotational values are in degrees (yes) or radians (no).

endheader
time	ground_thorax_rot_x	ground_thorax_rot_y	ground_thorax_rot_z	ground_thorax_tx	ground_thorax_ty	ground_thorax_tz	clav_prot	clav_elev	scapula_abduction	scapula_elevation	scapula_upward_rot	scapula_winging	plane_elv	shoulder_elv	axial_rot	elbow_flexion	pro_sup
      0.00000000	      3.48398602	     -1.45171098	     -8.53153423	     -0.00457352	      0.00408136	      0.00051814	    -24.02993336	     -5.68230222	    -15.98923467	     -4.56013264	     10.65894665	      6.47109858	    -35.12834716	     18.71270263	     60.48701290	      0.00000000	     34.32000000
      0.01000000	      3.48417573	     -1.45072412	     -8.53068225	     -0.00454539	      0.00398358	      0.00062017	    -24.02983676	     -5.68283632	    -15.98867065	     -4.56066304	     10.65941181	      6.47117958	    -35.12810833	     18.71288880	     60.48705326	      0.00000000	     34.32000000
      0.02000000	      3.51865152	     -1.41661394	     -8.51418069	     -0.00467960	      0.00397114	      0.00073748	    -24.02411493	     -5.70667544	    -15.96122306	     -4.58456917	     10.68084963	      6.47416728	    -35.12144028	     18.74240950	     60.48993259	      0.00000000	     34.32000000
      0.03000000	      3.61525752	     -1.40865853	     -8.52267972	     -0.00466364	      0.00403411	      0.00081498	    -24.00960759	     -5.74499671	    -15.90570802	     -4.62380564	     10.71977171	      6.47861081	    -35.15410094	     18.89498213	     60.48649708	      0.00000000	     34.32000000
      0.04000000	      3.61541737	     -1.40852610	     -8.52211312	     -0.00464675	      0.00402314	      0.00078791	    -24.00956189	     -5.74529126	    -15.90552073	     -4.62405021	     10.71984370	      6.47870053	    -35.15402444	     18.89463440	     60.48646313	      0.00000000	     34.32000000
      0.05000000	      3.60042565	     -1.40686418	     -8.49077659	     -0.00468981	      0.00415838	      0.00063195	    -24.00967390	     -5.75679723	    -15.90005479	     -4.63437781	     10.72508583	      6.48149137	    -35.14854176	     18.86152585	     60.48399353	      0.00000000	     34.32000000
      0.06000000	      3.60010019	     -1.40781067	     -8.49108096	     -0.00466973	      0.00426653	      0.00049373	    -24.00975165	     -5.75644776	    -15.90054489	     -4.63398670	     10.72462371	      6.48152738	    -35.14873275	     18.86064709	     60.48391470	      0.00000000	     34.32000000
      0.07000000	      3.45893727	     -1.48141702	     -8.45918669	     -0.00464251	      0.00413904	      0.00055477	    -24.01775506	     -5.72328097	    -15.93439538	     -4.60286422	     10.70256063	      6.47505704	    -35.17065717	     18.68684504	     60.46778252	      0.00000000	     34.32000000
      0.08000000	      3.45769985	     -1.48029549	     -8.45934959	     -0.00462990	      0.00419090	      0.00069515	    -24.01760544	     -5.72300107	    -15.93379389	     -4.60283880	     10.70330318	      6.47477661	    -35.17045681	     18.68716353	     60.46782148	      0.00000000	     34.32000000
      0.09000000	      3.44013488	     -1.44156953	     -8.46055425	     -0.00469080	      0.00418505	      0.00068292	    -24.00846418	     -5.71837650	    -15.90723918	     -4.60452141	     10.72490902	      6.46786748	    -35.16271820	     18.68702185	     60.46865109	      0.00000000	     34.32000000
      0.10000000	      3.44016360	     -1.44138101	     -8.46085947	     -0.00466481	      0.00424144	      0.00064616	    -24.00828431	     -5.71815561	    -15.90706878	     -4.60429510	     10.72474803	      6.46782524	    -35.16272074	     18.68666288	     60.46862537	      0.00000000	     34.32000000
      0.11000000	      3.44091922	     -1.41957780	     -8.46192209	     -0.00469382	      0.00429109	      0.00052334	    -23.99452414	     -5.71668651	    -15.88845293	     -4.60003249	     10.71638193	      6.46935599	    -35.15438697	     18.64724196	     60.46771569	      0.00000000	     34.32000000
      0.12000000	      3.44113789	     -1.41879643	     -8.46101756	     -0.00460429	      0.00424967	      0.00048825	    -23.99434020	     -5.71710748	    -15.88794928	     -4.60038507	     10.71652018	      6.46943096	    -35.15405591	     18.64646176	     60.46772664	      0.00000000	     34.32000000
      0.13000000	      3.42553051	     -1.38088612	     -8.44340283	     -0.00465655	      0.00423899	      0.00046750	    -23.98699190	     -5.72527049	    -15.86119769	     -4.61218173	     10.73852297	      6.46697708	    -35.13444063	     18.62099372	     60.46898700	      0.00000000	     34.32000000
      0.14000000	      3.42441540	     -1.37935161	     -8.44291724	     -0.00453573	      0.00429099	      0.00053103	    -23.98680240	     -5.72518365	    -15.86045769	     -4.61231467	     10.73930836	      6.46675484	    -35.13392768	     18.62077539	     60.46903018	      0.00000000	     34.32000000
      0.15000000	      3.39281192	     -1.34980875	     -8.44564328	     -0.00453909	      0.00431749	      0.00041726	    -23.98352398	     -5.71460533	    -15.84677081	     -4.60907337	     10.75838558	      6.45833910	    -35.11735654	     18.61228476	     60.47007883	      0.00000000	     34.32000000
      0.16000000	      3.39267977	     -1.35050868	     -8.44677631	     -0.00462656	      0.00433504	      0.00043317	    -23.98358193	     -5.71401163	    -15.84717931	     -4.60853603	     10.75808331	      6.45820115	    -35.11745167	     18.61249459	     60.47005944	      0.00000000	     34.32000000
      0.17000000	      3.40746844	     -1.38577450	     -8.48274281	     -0.00465254	      0.00419723	      0.00055022	    -23.98573734	     -5.69482167	    -15.86590618	     -4.58873927	     10.73921909	      6.45589529	    -35.12404845	     18.62332144	     60.46918621	      0.00000000	     34.32000000
      0.18000000	      3.40865773	     -1.38712096	     -8.48323702	     -0.00478061	      0.00409628	      0.00054509	    -23.98590053	     -5.69486986	    -15.86643882	     -4.58865267	     10.73875734	      6.45609275	    -35.12429005	     18.62365241	     60.46916299	      0.00000000	     34.32000000
      0.19000000	      3.44730504	     -1.40855264	     -8.49282777	     -0.00467810	      0.00406137	      0.00063612	    -23.98687109	     -5.69783392	    -15.87410868	     -4.58773795	     10.72665222	      6.46009375	    -35.12702213	     18.63188487	     60.46896511	      0.00000000	     34.32000000
      0.20000000	      3.44780538	     -1.40768294	     -8.49201614	     -0.00457716	      0.00403279	      0.00062515	    -23.98672683	     -5.69828554	    -15.87361718	     -4.58814467	     10.72689785	      6.46019430	    -35.12668614	     18.63169671	     60.46900047	      0.00000000	     34.32000000
      0.21000000	      3.44803589	     -1.40695570	     -8.49166110	     -0.00452518	      0.00405149	      0.00060717	    -23.98659022	     -5.69851679	    -15.87321308	     -4.58837081	     10.72710440	      6.46022603	    -35.12637615	     18.63158899	     60.46903724	      0.00000000	     34.32000000
